<?xml version="1.0" encoding="UTF-8" standalone="no"?>
<!DOCTYPE svg PUBLIC "-//W3C//DTD SVG 1.1//EN" "http://www.w3.org/Graphics/SVG/1.1/DTD/svg11.dtd">
<svg width="100%" height="100%" viewBox="0 0 946 200" version="1.1" xmlns="http://www.w3.org/2000/svg" xmlnsXlink="http://www.w3.org/1999/xlink" xmlSpace="preserve" xmlnsSerif="http://www.serif.com/" style="fill-rule:evenodd;clip-rule:evenodd;stroke-linejoin:round;stroke-miterlimit:2;">
    <g transform="matrix(1,0,0,1,-767,-1654)">
        <g transform="matrix(0.925191,0,0,0.925191,-48774.3,1180.38)">
            <g transform="matrix(6.038,0,0,6.038,52413.2,-2158.21)">
                <path d="M187.865,443.233L193.439,442.884L193.64,462.748L203.181,461.902L203.181,443.233L208.554,442.884L208.906,477.933L203.181,477.485L203.181,467.129L193.64,467.876L193.539,477.933L187.865,477.485L187.865,443.233Z" style="fill:rgb(250,168,25);fill-rule:nonzero;"/>
            </g>
            <g transform="matrix(6.038,0,0,6.038,52413.2,-2158.21)">
                <path d="M214.379,448.46C214.948,447.465 215.685,446.585 216.589,445.822C217.493,445.058 218.505,444.419 219.627,443.905C220.748,443.391 221.945,443.009 223.217,442.76C224.489,442.511 225.762,442.387 227.034,442.387C228.574,442.387 230.072,442.569 231.528,442.934C232.984,443.299 234.273,443.855 235.395,444.602C236.516,445.349 237.412,446.286 238.081,447.415C238.751,448.543 239.086,449.854 239.086,451.348L239.035,476.788L233.512,477.883L233.512,476.738C232.775,477.003 231.754,477.236 230.448,477.435C229.143,477.634 227.703,477.733 226.13,477.733C224.556,477.733 222.941,477.568 221.284,477.236C219.627,476.904 218.12,476.315 216.764,475.468C215.409,474.622 214.304,473.452 213.45,471.958C212.597,470.465 212.17,468.557 212.17,466.233C212.17,464.341 212.504,462.632 213.174,461.105C213.844,459.579 214.739,458.284 215.861,457.222C216.982,456.16 218.296,455.339 219.803,454.758C221.309,454.177 222.916,453.887 224.623,453.887C226.063,453.887 227.528,454.102 229.017,454.534C230.507,454.965 231.988,455.662 233.461,456.625L233.461,455.679C233.461,455.048 233.47,454.36 233.487,453.613C233.503,452.866 233.512,452.177 233.512,451.547L233.512,450.601C233.177,449.705 232.382,449.016 231.126,448.535C229.871,448.054 228.473,447.813 226.933,447.813C226.029,447.813 225.117,447.904 224.197,448.087C223.276,448.269 222.422,448.56 221.635,448.958C220.849,449.356 220.179,449.854 219.627,450.452C219.074,451.049 218.698,451.763 218.497,452.592L214.379,448.46ZM233.662,462.748C232.524,461.454 231.294,460.525 229.971,459.96C228.649,459.396 227.352,459.114 226.08,459.114C224.975,459.114 223.92,459.297 222.916,459.662C221.912,460.027 221.025,460.541 220.255,461.205C219.485,461.869 218.882,462.649 218.447,463.545C218.012,464.441 217.794,465.42 217.794,466.482C217.794,467.511 218.062,468.382 218.597,469.096C219.133,469.809 219.828,470.382 220.681,470.813C221.535,471.245 222.514,471.552 223.619,471.734C224.724,471.917 225.845,472.008 226.984,472.008C228.189,472.008 229.36,471.925 230.499,471.759C231.637,471.593 232.641,471.378 233.512,471.112L233.662,462.748Z" style="fill:rgb(250,168,25);fill-rule:nonzero;"/>
            </g>
            <g transform="matrix(6.038,0,0,6.038,52413.2,-2158.21)">
                <path d="M248.326,466.731C248.091,467.793 247.949,468.689 247.899,469.419C247.848,470.15 247.966,470.747 248.25,471.212C248.535,471.676 249.02,472.008 249.706,472.207C250.393,472.407 251.339,472.506 252.544,472.506C254.084,472.506 255.214,472.066 255.933,471.187C256.653,470.307 257.013,469.171 257.013,467.777C257.013,466.416 256.67,465.271 255.984,464.341C255.297,463.412 254.444,462.582 253.423,461.852C252.401,461.122 251.288,460.45 250.083,459.836C248.878,459.222 247.765,458.55 246.744,457.82C245.723,457.09 244.869,456.243 244.183,455.281C243.496,454.318 243.153,453.157 243.153,451.796C243.153,450.634 243.388,449.489 243.856,448.361C244.325,447.232 244.995,446.228 245.865,445.349C246.735,444.469 247.782,443.756 249.003,443.208C250.225,442.66 251.573,442.387 253.046,442.387C254.72,442.387 256.276,442.71 257.716,443.357C259.156,444.005 260.411,444.843 261.482,445.871L262.236,446.568L257.314,449.605L256.762,449.207C256.193,448.809 255.515,448.485 254.728,448.236C253.941,447.987 253.163,447.863 252.393,447.863C251.422,447.863 250.569,448.095 249.832,448.56C249.096,449.024 248.727,449.821 248.727,450.949C248.727,451.779 249.07,452.526 249.757,453.19C250.443,453.854 251.297,454.501 252.318,455.131C253.339,455.762 254.452,456.426 255.657,457.123C256.862,457.82 257.975,458.633 258.997,459.562C260.018,460.491 260.871,461.595 261.558,462.873C262.244,464.151 262.587,465.669 262.587,467.428C262.587,468.623 262.378,469.834 261.959,471.062C261.541,472.29 260.913,473.402 260.076,474.398C259.239,475.394 258.193,476.207 256.938,476.837C255.682,477.468 254.218,477.783 252.544,477.783C248.292,477.783 245.413,476.738 243.906,474.647C242.4,472.556 241.998,469.585 242.701,465.735L248.326,466.731Z" style="fill:rgb(250,168,25);fill-rule:nonzero;"/>
            </g>
            <g transform="matrix(6.038,0,0,6.038,52465.8,-2158.21)">
                <path d="M288.713,446.12C288.713,445.689 288.805,445.249 288.989,444.801C289.173,444.353 289.432,443.938 289.767,443.556C290.102,443.175 290.512,442.859 290.997,442.611C291.483,442.362 292.044,442.237 292.68,442.237C293.316,442.237 293.876,442.362 294.362,442.611C294.847,442.859 295.249,443.183 295.567,443.581C295.885,443.98 296.128,444.403 296.295,444.851C296.463,445.299 296.546,445.722 296.546,446.12C296.546,446.519 296.463,446.934 296.295,447.365C296.128,447.796 295.885,448.203 295.567,448.585C295.249,448.966 294.847,449.282 294.362,449.531C293.876,449.78 293.316,449.904 292.68,449.904C292.077,449.904 291.525,449.788 291.023,449.555C290.52,449.323 290.102,449.016 289.767,448.634C289.432,448.253 289.173,447.838 288.989,447.39C288.805,446.942 288.713,446.519 288.713,446.12ZM289.918,452.742L295.391,452.343L295.693,476.738L289.918,477.833L289.918,452.742Z" style="fill:rgb(250,168,25);fill-rule:nonzero;"/>
            </g>
            <g transform="matrix(6.038,0,0,6.038,52465.8,-2158.21)">
                <path d="M299.81,443.332L305.234,442.835L305.234,444.029C306.305,443.631 307.41,443.316 308.548,443.084C309.686,442.851 310.841,442.735 312.013,442.735C314.524,442.735 316.541,443.249 318.064,444.278C319.587,445.307 320.751,446.593 321.554,448.137C322.358,449.68 322.885,451.339 323.136,453.115C323.387,454.891 323.513,456.525 323.513,458.019L323.513,477.933L317.788,477.435L317.788,458.716C317.788,457.355 317.713,456.036 317.562,454.758C317.411,453.48 317.085,452.352 316.583,451.373C316.081,450.394 315.344,449.614 314.373,449.033C313.402,448.452 312.08,448.162 310.406,448.162C309.435,448.162 308.498,448.419 307.594,448.933C306.69,449.448 305.903,450.07 305.234,450.8L305.686,477.982L299.81,477.086L299.81,443.332Z" style="fill:rgb(250,168,25);fill-rule:nonzero;"/>
            </g>
            <g transform="matrix(6.038,0,0,6.038,52465.8,-2158.21)">
                <path d="M325.682,443.233L326.536,443.183C327.071,443.117 327.59,443.084 328.092,443.084L329.599,443.084C332.511,443.084 335.131,443.407 337.458,444.054C339.784,444.702 341.759,445.672 343.383,446.967C345.007,448.261 346.254,449.887 347.124,451.846C347.995,453.804 348.43,456.11 348.43,458.766C348.43,461.421 348.07,463.91 347.35,466.233C346.63,468.557 345.492,470.573 343.936,472.282C342.379,473.991 340.395,475.344 337.985,476.34C335.574,477.335 332.662,477.833 329.247,477.833C328.779,477.833 328.327,477.825 327.891,477.808C327.456,477.792 327.004,477.767 326.536,477.733L325.682,477.684L325.682,443.233ZM331.306,471.909C333.382,471.809 335.139,471.419 336.579,470.739C338.018,470.058 339.19,469.146 340.094,468.001C340.998,466.856 341.659,465.511 342.078,463.968C342.496,462.425 342.705,460.757 342.705,458.965C342.705,455.579 341.693,452.991 339.667,451.198C337.642,449.406 334.771,448.427 331.055,448.261L331.306,471.909Z" style="fill:rgb(250,168,25);fill-rule:nonzero;"/>
            </g>
            <g transform="matrix(6.038,0,0,6.038,44350,-2579.54)">
                <path d="M1620.29,519.994L1620.36,512.664L1625.94,513.012L1625.94,519.568L1629.22,519.321L1629.22,524.498L1625.94,524.745L1625.94,534.729L1629.22,535.017L1629.22,540.194L1625.94,539.906L1625.94,547.264L1620.26,547.712L1620.18,539.401L1610.62,538.562L1610.62,547.264L1604.9,547.712L1604.99,538.069L1601.62,537.772L1601.62,532.595L1605.05,532.896L1605.11,526.317L1601.62,526.58L1601.62,521.403L1605.16,521.136L1605.25,512.664L1610.62,513.012L1610.62,520.724L1620.29,519.994ZM1620.24,525.175L1610.62,525.901L1610.62,533.385L1620.16,534.222L1620.16,532.528L1620.24,525.175Z" style="fill:rgb(250,168,25);fill-rule:nonzero;"/>
            </g>
        </g>
    </g>
</svg>
